<svg width="50" height="50" viewBox="0 0 50 50" fill="none" xmlns="http://www.w3.org/2000/svg">
<circle cx="25" cy="25" r="24" stroke="#0377C5" stroke-width="2"/>
<path d="M25 24C23.4875 24 22.1927 23.4615 21.1156 22.3844C20.0385 21.3073 19.5 20.0125 19.5 18.5C19.5 16.9875 20.0385 15.6927 21.1156 14.6156C22.1927 13.5385 23.4875 13 25 13C26.5125 13 27.8073 13.5385 28.8844 14.6156C29.9615 15.6927 30.5 16.9875 30.5 18.5C30.5 20.0125 29.9615 21.3073 28.8844 22.3844C27.8073 23.4615 26.5125 24 25 24ZM14 35V31.15C14 30.3708 14.2008 29.6549 14.6023 29.0022C15.0038 28.3496 15.5363 27.8509 16.2 27.5063C17.6208 26.7958 19.0646 26.2632 20.5312 25.9085C21.9979 25.5537 23.4875 25.3759 25 25.375C26.5125 25.375 28.0021 25.5528 29.4687 25.9085C30.9354 26.2642 32.3792 26.7968 33.8 27.5063C34.4646 27.85 34.9976 28.3487 35.3991 29.0022C35.8006 29.6558 36.0009 30.3718 36 31.15V35H14Z" fill="#0377C5"/>
</svg>
