<svg width="22" height="23" viewBox="0 0 22 23" fill="none" xmlns="http://www.w3.org/2000/svg">
<path d="M14.6921 20.5789C14.6923 21.1898 14.4578 21.7781 14.0355 22.2259C13.6133 22.6738 13.0346 22.9481 12.4154 22.9939L12.2308 23H9.76943C9.14846 23.0002 8.55037 22.7695 8.09505 22.3542C7.63973 21.9389 7.36082 21.3696 7.31425 20.7605L7.3081 20.5789H14.6921ZM11.0001 1.15492e-09C13.2337 -3.62493e-05 15.3801 0.853292 16.9863 2.37999C18.5926 3.90668 19.5333 5.98737 19.6098 8.18316L19.6148 8.47368V13.0301L21.857 17.4413C21.9549 17.6337 22.0039 17.8467 21.9998 18.0618C21.9957 18.277 21.9386 18.488 21.8335 18.6767C21.7283 18.8654 21.5783 19.0263 21.3961 19.1455C21.214 19.2647 21.0052 19.3387 20.7876 19.3612L20.6461 19.3684H1.35413C1.13528 19.3685 0.919667 19.3164 0.725781 19.2165C0.531894 19.1166 0.365513 18.972 0.240893 18.7951C0.116274 18.6181 0.0371323 18.414 0.0102507 18.2004C-0.0166309 17.9868 0.00954896 17.7699 0.0865468 17.5684L0.143157 17.4413L2.38543 13.0301V8.47368C2.38543 6.22632 3.29305 4.07101 4.90861 2.48188C6.52417 0.892761 8.71535 1.15493e-09 11.0001 1.15492e-09Z" fill="#005D9C"/>
</svg>
