<svg width="30" height="30" viewBox="0 0 30 30" fill="none" xmlns="http://www.w3.org/2000/svg">
<path d="M15 0C6.64286 0 0 6.64286 0 15C0 23.3571 6.64286 30 15 30C23.3571 30 30 23.3571 30 15C30 6.64286 23.3571 0 15 0ZM15 27.8571C7.92857 27.8571 2.14286 22.0714 2.14286 15C2.14286 7.92857 7.92857 2.14286 15 2.14286C22.0714 2.14286 27.8571 7.92857 27.8571 15C27.8571 22.0714 22.0714 27.8571 15 27.8571Z" fill="#0377C5"/>
<path fill-rule="evenodd" clip-rule="evenodd" d="M21.8442 8.13096C21.4536 7.74043 20.8205 7.74044 20.4299 8.13096L15.0381 13.5228L9.64626 8.13096C9.25573 7.74044 8.62257 7.74044 8.23204 8.13096L8.13103 8.23198C7.7405 8.6225 7.7405 9.25567 8.13103 9.64619L13.5229 15.038L8.2071 20.3538C7.81658 20.7443 7.81658 21.3775 8.2071 21.768L8.30812 21.869C8.69864 22.2596 9.33181 22.2596 9.72233 21.869L15.0381 16.5533L20.3539 21.869C20.7444 22.2596 21.3776 22.2596 21.7681 21.869L21.8691 21.768C22.2596 21.3775 22.2596 20.7443 21.8691 20.3538L16.5533 15.038L21.9452 9.64619C22.3357 9.25566 22.3357 8.6225 21.9452 8.23197L21.8442 8.13096Z" fill="#0377C5"/>
</svg>
