<svg width="20" height="20" viewBox="0 0 20 20" fill="none" xmlns="http://www.w3.org/2000/svg">
<path d="M10 0C4.42857 0 0 4.42857 0 10C0 15.5714 4.42857 20 10 20C15.5714 20 20 15.5714 20 10C20 4.42857 15.5714 0 10 0ZM10 18.5714C5.28571 18.5714 1.42857 14.7143 1.42857 10C1.42857 5.28571 5.28571 1.42857 10 1.42857C14.7143 1.42857 18.5714 5.28571 18.5714 10C18.5714 14.7143 14.7143 18.5714 10 18.5714Z" fill="#F37578"/>
<path fill-rule="evenodd" clip-rule="evenodd" d="M14.5964 5.4543C14.3175 5.17535 13.8652 5.17535 13.5863 5.4543L10.0254 9.0152L6.46448 5.4543C6.18553 5.17535 5.73327 5.17535 5.45433 5.4543C5.17538 5.73324 5.17538 6.1855 5.45433 6.46445L9.01523 10.0254L5.50506 13.5355C5.22612 13.8145 5.22612 14.2667 5.50506 14.5457C5.78401 14.8246 6.23627 14.8246 6.51521 14.5457L10.0254 11.0355L13.5355 14.5457C13.8145 14.8246 14.2668 14.8246 14.5457 14.5457C14.8246 14.2667 14.8246 13.8145 14.5457 13.5355L11.0355 10.0254L14.5964 6.46445C14.8754 6.1855 14.8754 5.73324 14.5964 5.4543Z" fill="#F37578"/>
</svg>
