<svg width="211" height="28" viewBox="0 0 211 28" fill="none" xmlns="http://www.w3.org/2000/svg">
<path d="M205.903 22.0729C204.717 22.0729 203.694 21.8111 202.833 21.2875C201.978 20.7585 201.319 20.0212 200.854 19.0755C200.394 18.1244 200.165 17.0184 200.165 15.7575C200.165 14.4966 200.394 13.3852 200.854 12.4235C201.319 11.4564 201.965 10.703 202.793 10.1634C203.627 9.61842 204.599 9.34593 205.711 9.34593C206.352 9.34593 206.985 9.45279 207.61 9.66651C208.235 9.88023 208.804 10.2275 209.317 10.7084C209.83 11.1839 210.239 11.8144 210.543 12.5998C210.848 13.3852 211 14.3523 211 15.501V16.3025H201.511V14.6675H209.077C209.077 13.9729 208.938 13.3532 208.66 12.8082C208.387 12.2632 207.997 11.8331 207.49 11.5179C206.988 11.2026 206.394 11.045 205.711 11.045C204.957 11.045 204.305 11.232 203.755 11.606C203.21 11.9747 202.791 12.4555 202.497 13.0486C202.203 13.6417 202.056 14.2775 202.056 14.9561V16.046C202.056 16.9757 202.216 17.7638 202.537 18.4103C202.863 19.0514 203.314 19.5403 203.891 19.8769C204.468 20.2082 205.139 20.3738 205.903 20.3738C206.4 20.3738 206.849 20.3044 207.249 20.1655C207.655 20.0212 208.005 19.8075 208.299 19.5243C208.593 19.2358 208.82 18.8778 208.98 18.4504L210.808 18.9633C210.615 19.5831 210.292 20.1281 209.838 20.5982C209.384 21.0631 208.823 21.4264 208.155 21.6882C207.487 21.9447 206.736 22.0729 205.903 22.0729Z" fill="#0377C5"/>
<path d="M191.958 26.6892C191.044 26.6892 190.259 26.5717 189.602 26.3366C188.944 26.1068 188.397 25.8023 187.959 25.4229C187.526 25.0489 187.181 24.6482 186.925 24.2208L188.431 23.1629C188.602 23.3873 188.819 23.6437 189.081 23.9323C189.342 24.2261 189.7 24.4799 190.154 24.6936C190.614 24.9127 191.215 25.0222 191.958 25.0222C192.952 25.0222 193.772 24.7818 194.418 24.3009C195.065 23.8201 195.388 23.0667 195.388 22.0408V19.5403H195.228C195.089 19.7647 194.891 20.0426 194.635 20.3738C194.383 20.6998 194.02 20.9909 193.545 21.2474C193.074 21.4985 192.439 21.6241 191.637 21.6241C190.643 21.6241 189.751 21.389 188.96 20.9188C188.175 20.4486 187.552 19.7647 187.093 18.8671C186.639 17.9695 186.412 16.8795 186.412 15.5972C186.412 14.3363 186.633 13.2383 187.077 12.3033C187.52 11.3629 188.138 10.6363 188.928 10.1233C189.719 9.60507 190.633 9.34593 191.669 9.34593C192.471 9.34593 193.106 9.47951 193.577 9.74666C194.052 10.0085 194.416 10.3077 194.667 10.6443C194.923 10.9755 195.121 11.248 195.26 11.4618H195.452V9.50622H197.279V22.1691C197.279 23.227 197.039 24.0872 196.558 24.7497C196.083 25.4176 195.441 25.9065 194.635 26.2164C193.833 26.5316 192.941 26.6892 191.958 26.6892ZM191.894 19.925C192.652 19.925 193.293 19.7514 193.817 19.4041C194.341 19.0568 194.739 18.5572 195.011 17.9054C195.284 17.2535 195.42 16.4735 195.42 15.5652C195.42 14.6782 195.286 13.8955 195.019 13.2169C194.752 12.5384 194.357 12.0067 193.833 11.622C193.31 11.2373 192.663 11.045 191.894 11.045C191.092 11.045 190.424 11.248 189.89 11.6541C189.361 12.0602 188.963 12.6051 188.696 13.289C188.434 13.9729 188.303 14.7317 188.303 15.5652C188.303 16.42 188.437 17.1761 188.704 17.8332C188.976 18.4851 189.377 18.998 189.906 19.372C190.44 19.7407 191.103 19.925 191.894 19.925Z" fill="#0377C5"/>
<path d="M177.894 22.105C177.114 22.105 176.406 21.958 175.77 21.6642C175.135 21.365 174.63 20.9348 174.256 20.3738C173.882 19.8075 173.695 19.1236 173.695 18.3221C173.695 17.6169 173.834 17.0452 174.111 16.607C174.389 16.1636 174.761 15.8163 175.225 15.5652C175.69 15.314 176.203 15.127 176.764 15.0041C177.331 14.8759 177.9 14.7744 178.471 14.6996C179.219 14.6034 179.826 14.5313 180.291 14.4832C180.761 14.4298 181.103 14.3416 181.316 14.2187C181.536 14.0958 181.645 13.8821 181.645 13.5776V13.5135C181.645 12.7227 181.429 12.1083 180.996 11.6701C180.568 11.232 179.919 11.0129 179.048 11.0129C178.145 11.0129 177.437 11.2106 176.925 11.606C176.412 12.0014 176.051 12.4235 175.843 12.8723L174.047 12.2311C174.368 11.4831 174.795 10.9007 175.33 10.484C175.869 10.0619 176.457 9.76803 177.093 9.60239C177.734 9.43142 178.364 9.34593 178.984 9.34593C179.38 9.34593 179.834 9.39402 180.347 9.49019C180.865 9.58102 181.365 9.7707 181.845 10.0592C182.332 10.3477 182.735 10.7832 183.056 11.3656C183.376 11.948 183.536 12.728 183.536 13.7058V21.8164H181.645V20.1494H181.549C181.421 20.4166 181.207 20.7024 180.908 21.007C180.609 21.3115 180.21 21.5707 179.714 21.7844C179.217 21.9981 178.61 22.105 177.894 22.105ZM178.183 20.4059C178.931 20.4059 179.561 20.259 180.074 19.9651C180.592 19.6712 180.983 19.2919 181.244 18.827C181.511 18.3622 181.645 17.8733 181.645 17.3604V15.6293C181.565 15.7254 181.389 15.8136 181.116 15.8937C180.849 15.9686 180.539 16.0353 180.186 16.0941C179.839 16.1475 179.5 16.1956 179.169 16.2384C178.843 16.2758 178.578 16.3078 178.375 16.3345C177.884 16.3987 177.424 16.5028 176.997 16.6471C176.575 16.786 176.233 16.9971 175.971 17.2803C175.714 17.5581 175.586 17.9374 175.586 18.4183C175.586 19.0755 175.829 19.5724 176.315 19.909C176.807 20.2403 177.429 20.4059 178.183 20.4059Z" fill="#0377C5"/>
<path d="M162.961 14.4111V21.8164H161.07V9.50622H162.897V11.4297H163.058C163.346 10.8046 163.784 10.3023 164.372 9.92297C164.96 9.53828 165.718 9.34593 166.648 9.34593C167.482 9.34593 168.211 9.51691 168.836 9.85886C169.461 10.1955 169.947 10.7084 170.295 11.3976C170.642 12.0815 170.816 12.9471 170.816 13.9943V21.8164H168.924V14.1226C168.924 13.1555 168.673 12.4021 168.171 11.8625C167.669 11.3175 166.979 11.045 166.103 11.045C165.499 11.045 164.96 11.1759 164.484 11.4377C164.014 11.6995 163.643 12.0815 163.37 12.5838C163.098 13.086 162.961 13.6951 162.961 14.4111Z" fill="#0377C5"/>
<path d="M151.976 22.105C151.196 22.105 150.488 21.958 149.852 21.6642C149.216 21.365 148.711 20.9348 148.337 20.3738C147.963 19.8075 147.776 19.1236 147.776 18.3221C147.776 17.6169 147.915 17.0452 148.193 16.607C148.471 16.1636 148.842 15.8163 149.307 15.5652C149.772 15.314 150.285 15.127 150.846 15.0041C151.412 14.8759 151.981 14.7744 152.553 14.6996C153.301 14.6034 153.907 14.5313 154.372 14.4832C154.842 14.4298 155.184 14.3416 155.398 14.2187C155.617 14.0958 155.726 13.8821 155.726 13.5776V13.5135C155.726 12.7227 155.51 12.1083 155.077 11.6701C154.65 11.232 154.001 11.0129 153.13 11.0129C152.227 11.0129 151.519 11.2106 151.006 11.606C150.493 12.0014 150.132 12.4235 149.924 12.8723L148.129 12.2311C148.449 11.4831 148.877 10.9007 149.411 10.484C149.951 10.0619 150.538 9.76803 151.174 9.60239C151.815 9.43142 152.446 9.34593 153.066 9.34593C153.461 9.34593 153.915 9.39402 154.428 9.49019C154.946 9.58102 155.446 9.7707 155.927 10.0592C156.413 10.3477 156.816 10.7832 157.137 11.3656C157.457 11.948 157.618 12.728 157.618 13.7058V21.8164H155.726V20.1494H155.63C155.502 20.4166 155.288 20.7024 154.989 21.007C154.69 21.3115 154.292 21.5707 153.795 21.7844C153.298 21.9981 152.692 22.105 151.976 22.105ZM152.264 20.4059C153.012 20.4059 153.643 20.259 154.156 19.9651C154.674 19.6712 155.064 19.2919 155.326 18.827C155.593 18.3622 155.726 17.8733 155.726 17.3604V15.6293C155.646 15.7254 155.47 15.8136 155.197 15.8937C154.93 15.9686 154.62 16.0353 154.268 16.0941C153.92 16.1475 153.581 16.1956 153.25 16.2384C152.924 16.2758 152.659 16.3078 152.456 16.3345C151.965 16.3987 151.505 16.5028 151.078 16.6471C150.656 16.786 150.314 16.9971 150.052 17.2803C149.796 17.5581 149.667 17.9374 149.667 18.4183C149.667 19.0755 149.911 19.5724 150.397 19.909C150.888 20.2403 151.511 20.4059 152.264 20.4059Z" fill="#0377C5"/>
<path d="M128.531 5.40282H130.904L136.482 19.0274H136.674L142.252 5.40282H144.624V21.8164H142.765V9.34593H142.605L137.475 21.8164H135.68L130.551 9.34593H130.391V21.8164H128.531V5.40282Z" fill="#0377C5"/>
<path d="M116.964 14.4111V21.8164H115.073V9.50622H116.9V11.4297H117.06C117.349 10.8046 117.787 10.3023 118.375 9.92297C118.963 9.53828 119.721 9.34593 120.651 9.34593C121.484 9.34593 122.214 9.51691 122.839 9.85886C123.464 10.1955 123.95 10.7084 124.298 11.3976C124.645 12.0815 124.818 12.9471 124.818 13.9943V21.8164H122.927V14.1226C122.927 13.1555 122.676 12.4021 122.174 11.8625C121.671 11.3175 120.982 11.045 120.106 11.045C119.502 11.045 118.963 11.1759 118.487 11.4377C118.017 11.6995 117.646 12.0815 117.373 12.5838C117.101 13.086 116.964 13.6951 116.964 14.4111Z" fill="#0377C5"/>
<path d="M106.608 22.0729C105.496 22.0729 104.521 21.8084 103.682 21.2795C102.849 20.7505 102.197 20.0105 101.727 19.0595C101.262 18.1084 101.03 16.9971 101.03 15.7254C101.03 14.4431 101.262 13.3238 101.727 12.3674C102.197 11.411 102.849 10.6683 103.682 10.1394C104.521 9.61041 105.496 9.34593 106.608 9.34593C107.719 9.34593 108.691 9.61041 109.525 10.1394C110.364 10.6683 111.016 11.411 111.481 12.3674C111.951 13.3238 112.186 14.4431 112.186 15.7254C112.186 16.9971 111.951 18.1084 111.481 19.0595C111.016 20.0105 110.364 20.7505 109.525 21.2795C108.691 21.8084 107.719 22.0729 106.608 22.0729ZM106.608 20.3738C107.452 20.3738 108.147 20.1574 108.691 19.7247C109.236 19.2919 109.64 18.7229 109.902 18.0176C110.163 17.3123 110.294 16.5483 110.294 15.7254C110.294 14.9026 110.163 14.1359 109.902 13.4253C109.64 12.7147 109.236 12.1403 108.691 11.7022C108.147 11.2641 107.452 11.045 106.608 11.045C105.764 11.045 105.069 11.2641 104.524 11.7022C103.979 12.1403 103.576 12.7147 103.314 13.4253C103.052 14.1359 102.921 14.9026 102.921 15.7254C102.921 16.5483 103.052 17.3123 103.314 18.0176C103.576 18.7229 103.979 19.2919 104.524 19.7247C105.069 20.1574 105.764 20.3738 106.608 20.3738Z" fill="#0377C5"/>
<path d="M98.5351 12.2632L96.836 12.7441C96.7292 12.4609 96.5716 12.1857 96.3632 11.9186C96.1602 11.6461 95.8823 11.4217 95.5297 11.2454C95.177 11.069 94.7256 10.9809 94.1752 10.9809C93.4219 10.9809 92.7941 11.1545 92.2918 11.5018C91.7949 11.8438 91.5465 12.2792 91.5465 12.8082C91.5465 13.2784 91.7175 13.6497 92.0594 13.9222C92.4014 14.1947 92.9357 14.4218 93.6623 14.6034L95.4896 15.0522C96.5903 15.3194 97.4104 15.7281 97.95 16.2784C98.4897 16.8234 98.7595 17.526 98.7595 18.3862C98.7595 19.0915 98.5565 19.722 98.1504 20.2777C97.7497 20.8333 97.1887 21.2715 96.4674 21.592C95.7461 21.9126 94.9072 22.0729 93.9508 22.0729C92.6952 22.0729 91.656 21.8004 90.8332 21.2554C90.0104 20.7104 89.4894 19.9143 89.2704 18.8671L91.0656 18.4183C91.2366 19.0808 91.5599 19.5777 92.0354 19.909C92.5162 20.2403 93.144 20.4059 93.9188 20.4059C94.8004 20.4059 95.5003 20.2189 96.0186 19.8449C96.5422 19.4655 96.804 19.0114 96.804 18.4824C96.804 18.055 96.6544 17.697 96.3552 17.4085C96.056 17.1146 95.5965 16.8956 94.9767 16.7513L92.925 16.2704C91.7976 16.0033 90.9695 15.5892 90.4405 15.0282C89.9169 14.4618 89.6551 13.7539 89.6551 12.9044C89.6551 12.2098 89.8501 11.5953 90.2401 11.061C90.6355 10.5267 91.1725 10.1073 91.851 9.80276C92.5349 9.49821 93.3097 9.34593 94.1752 9.34593C95.3934 9.34593 96.3498 9.61308 97.0444 10.1474C97.7443 10.6817 98.2412 11.3869 98.5351 12.2632Z" fill="#0377C5"/>
<path d="M81.4182 21.8164V9.50622H83.2455V11.3656H83.3737C83.5981 10.7565 84.0042 10.2623 84.5919 9.8829C85.1797 9.50355 85.8422 9.31387 86.5795 9.31387C86.7184 9.31387 86.8921 9.31655 87.1005 9.32189C87.3088 9.32723 87.4665 9.33525 87.5733 9.34593V11.2694C87.5092 11.2534 87.3623 11.2293 87.1325 11.1973C86.9081 11.1599 86.6704 11.1412 86.4192 11.1412C85.8208 11.1412 85.2865 11.2667 84.8163 11.5179C84.3515 11.7636 83.9828 12.1056 83.7103 12.5437C83.4432 12.9765 83.3096 13.4707 83.3096 14.0264V21.8164H81.4182Z" fill="#0377C5"/>
<path d="M73.4438 22.0729C72.2577 22.0729 71.2345 21.8111 70.3743 21.2875C69.5194 20.7585 68.8595 20.0212 68.3947 19.0755C67.9352 18.1244 67.7054 17.0184 67.7054 15.7575C67.7054 14.4966 67.9352 13.3852 68.3947 12.4235C68.8595 11.4564 69.506 10.703 70.3342 10.1634C71.1677 9.61842 72.1401 9.34593 73.2515 9.34593C73.8926 9.34593 74.5258 9.45279 75.1509 9.66651C75.776 9.88023 76.345 10.2275 76.858 10.7084C77.3709 11.1839 77.7796 11.8144 78.0842 12.5998C78.3887 13.3852 78.541 14.3523 78.541 15.501V16.3025H69.0519V14.6675H76.6175C76.6175 13.9729 76.4786 13.3532 76.2008 12.8082C75.9283 12.2632 75.5382 11.8331 75.0307 11.5179C74.5284 11.2026 73.9354 11.045 73.2515 11.045C72.4981 11.045 71.8462 11.232 71.2959 11.606C70.7509 11.9747 70.3315 12.4555 70.0377 13.0486C69.7438 13.6417 69.5969 14.2775 69.5969 14.9561V16.046C69.5969 16.9757 69.7571 17.7638 70.0777 18.4103C70.4036 19.0514 70.8551 19.5403 71.4322 19.8769C72.0092 20.2082 72.6798 20.3738 73.4438 20.3738C73.9407 20.3738 74.3895 20.3044 74.7902 20.1655C75.1963 20.0212 75.5463 19.8075 75.8401 19.5243C76.134 19.2358 76.3611 18.8778 76.5214 18.4504L78.3487 18.9633C78.1563 19.5831 77.8331 20.1281 77.3789 20.5982C76.9247 21.0631 76.3637 21.4264 75.6959 21.6882C75.028 21.9447 74.2773 22.0729 73.4438 22.0729Z" fill="#0377C5"/>
<path d="M54.3453 21.8164V5.40282H59.8913C61.179 5.40282 62.2316 5.63524 63.049 6.10007C63.8719 6.55957 64.481 7.18203 64.8763 7.96745C65.2717 8.75286 65.4694 9.62911 65.4694 10.5962C65.4694 11.5633 65.2717 12.4422 64.8763 13.2329C64.4863 14.0237 63.8825 14.6542 63.0651 15.1244C62.2476 15.5892 61.2004 15.8216 59.9234 15.8216H55.9482V14.0584H59.8593C60.7409 14.0584 61.4488 13.9062 61.9831 13.6016C62.5174 13.2971 62.9048 12.8857 63.1452 12.3674C63.391 11.8438 63.5139 11.2534 63.5139 10.5962C63.5139 9.939 63.391 9.35128 63.1452 8.83301C62.9048 8.31474 62.5147 7.90867 61.9751 7.61481C61.4355 7.3156 60.7195 7.166 59.8272 7.166H56.3329V21.8164H54.3453Z" fill="#0377C5"/>
<path d="M15.0815 0H18.9958L28.1996 22.4806H28.517L37.7208 0H41.6351V27.0825H38.5671V6.50614H38.3026L29.8394 27.0825H26.8772L18.414 6.50614H18.1495V27.0825H15.0815V0Z" fill="#005D9C"/>
<path d="M18.3547 27.0825V0H9.20382C7.07919 0 5.34246 0.383492 3.99362 1.15048C2.63597 1.90865 1.63096 2.9357 0.97858 4.23164C0.326202 5.52758 1.52588e-05 6.97338 1.52588e-05 8.56906C1.52588e-05 10.1647 0.326202 11.615 0.97858 12.9197C1.62214 14.2245 2.61834 15.2647 3.96717 16.0405C5.31601 16.8075 7.04393 17.191 9.15093 17.191H15.71V14.2818H9.25672C7.80209 14.2818 6.63399 14.0305 5.75239 13.528C4.8708 13.0255 4.23165 12.3467 3.83493 11.4915C3.4294 10.6276 3.22664 9.65342 3.22664 8.56906C3.22664 7.48471 3.4294 6.51496 3.83493 5.65981C4.23165 4.80467 4.87521 4.13466 5.76562 3.64979C6.65603 3.1561 7.83736 2.90925 9.30961 2.90925H15.0752V27.0825H18.3547Z" fill="#005D9C"/>
<circle cx="9.5" cy="8.5" r="3.5" fill="#FF7A00"/>
</svg>
