<svg width="87" height="101" viewBox="0 0 87 101" fill="none" xmlns="http://www.w3.org/2000/svg">
<path d="M44.1134 94.6875L50.3942 101H0V12.625H25.1235C25.1235 10.8825 25.4506 9.25505 26.1049 7.74268C26.7592 6.23031 27.6588 4.88232 28.8037 3.69873C29.9487 2.51514 31.2735 1.611 32.7783 0.986328C34.2831 0.361654 35.9188 0.0328776 37.6853 0C39.4191 0 41.0384 0.328776 42.5431 0.986328C44.0479 1.64388 45.3892 2.54801 46.5668 3.69873C47.7445 4.84945 48.6441 6.18099 49.2657 7.69336C49.8872 9.20573 50.2143 10.8496 50.247 12.625H75.3706V63.2729L69.0897 69.5854V18.9375H62.8088V31.5625H12.5618V18.9375H6.28088V94.6875H44.1134ZM18.8426 18.9375V25.25H56.5279V18.9375H43.9662V12.625C43.9662 11.7373 43.8026 10.9154 43.4755 10.1592C43.1483 9.40299 42.7067 8.74544 42.1506 8.18652C41.5945 7.6276 40.9239 7.16732 40.1387 6.80566C39.3536 6.44401 38.5358 6.27962 37.6853 6.3125C36.802 6.3125 35.9842 6.47689 35.2318 6.80566C34.4794 7.13444 33.8252 7.57829 33.269 8.13721C32.7129 8.69613 32.2549 9.37012 31.8951 10.1592C31.5353 10.9482 31.3717 11.7702 31.4044 12.625V18.9375H18.8426ZM87 71.6567L59.6684 99.1753L46.4687 85.8599L50.8849 81.4214L59.6684 90.1997L82.5838 67.2183L87 71.6567Z" fill="#FF7A00"/>
</svg>
